<svg version="1.1" id="Layer_1" xmlns="http://www.w3.org/2000/svg" xmlns:xlink="http://www.w3.org/1999/xlink" x="0px" y="0px"
	 width="100%" viewBox="0 0 228 221" enable-background="new 0 0 228 221" xml:space="preserve">
<path fill="#820482" opacity="1.000000" stroke="none" 
	d="
M96.000000,1.000000 
	C98.041664,1.000000 100.083336,1.000000 102.766434,1.312130 
	C108.298676,3.822979 113.189491,6.021698 118.855911,8.569095 
	C118.302094,8.951722 118.836281,8.597272 119.355331,8.221912 
	C132.370102,-1.190054 145.610428,0.615047 155.748230,13.051146 
	C167.386261,27.327570 166.497192,42.328697 158.703629,58.144821 
	C162.133133,56.235199 165.195282,53.897251 168.422394,51.814911 
	C181.237045,43.546040 197.094360,44.036812 208.510651,52.961918 
	C219.028793,61.184868 221.016891,69.880188 215.595718,85.454109 
	C222.831894,88.547401 226.119125,95.117279 229.000000,102.000000 
	C229.000000,104.700012 229.000000,107.400032 228.737244,110.802765 
	C220.859985,134.965485 203.725296,142.164062 180.475708,139.124649 
	C188.170166,143.621826 194.915009,148.573349 199.148315,156.180573 
	C205.318085,167.267670 206.141891,178.596420 199.620987,189.799179 
	C193.860123,199.696243 184.970978,203.241867 174.865601,201.368881 
	C171.663696,206.443130 169.344376,211.488113 165.758026,215.359314 
	C162.998260,218.338318 158.644791,219.840897 155.000000,222.000000 
	C151.969406,222.000000 148.938812,222.000000 145.230057,221.699341 
	C122.843918,217.264145 113.648407,202.628448 111.526711,181.944305 
	C111.179306,182.805496 111.072380,183.593948 110.948692,184.379745 
	C108.542290,199.667953 101.652260,211.848007 86.465775,217.455063 
	C71.988060,222.800446 54.005600,217.861771 50.514137,199.242294 
	C50.373062,198.489975 49.888332,197.802124 49.602398,197.169785 
	C36.039158,198.373795 25.470432,191.748886 22.526442,179.400024 
	C19.020027,164.692017 22.317577,151.625717 34.350025,141.667618 
	C38.107513,138.557907 42.403522,136.098892 46.624973,133.224945 
	C45.022655,133.224945 43.599133,133.112671 42.197884,133.241913 
	C23.485682,134.967804 10.468862,127.450928 2.690821,110.455399 
	C2.409644,109.841003 1.576112,109.479408 1.000001,109.000000 
	C1.000000,104.643097 1.000000,100.286201 1.324951,95.317177 
	C3.640917,87.127762 9.061796,82.408127 15.491875,78.676514 
	C14.845181,76.753227 14.246498,75.208595 13.804793,73.620300 
	C11.193205,64.229515 14.998584,53.360126 22.765781,47.919277 
	C35.957077,38.678902 53.203018,38.795235 66.181496,48.316647 
	C69.203255,50.533504 72.007004,53.047527 74.917015,55.429676 
	C75.222885,55.012867 75.434624,54.836502 75.402740,54.751411 
	C74.539772,52.447937 73.529442,50.192558 72.788353,47.851704 
	C68.546104,34.451721 69.320114,21.539709 79.401558,11.130628 
	C83.767090,6.623217 90.398064,4.309927 96.000000,1.000000 
M213.474869,118.348259 
	C212.976608,119.767670 212.478348,121.187080 211.980087,122.606491 
	C212.194962,122.736397 212.409851,122.866302 212.624741,122.996201 
	C213.211075,122.356445 213.797409,121.716690 214.945145,120.586029 
	C216.042633,118.750648 217.300156,116.990875 218.209427,115.066559 
	C221.802734,107.461945 220.845917,100.875961 215.131439,95.644493 
	C205.981293,88.275726 205.985306,88.276939 209.314331,77.253769 
	C209.650574,76.140411 210.004211,75.016617 210.175568,73.871597 
	C211.688477,63.761959 198.948761,52.604733 189.165070,55.767948 
	C191.016251,56.549118 192.712509,57.164532 194.319870,57.959656 
	C203.971756,62.734196 207.924042,68.920609 204.886383,77.066536 
	C201.842560,85.229004 203.613663,90.845383 210.782379,95.248726 
	C211.753693,95.845352 212.499222,96.809586 213.664948,98.281479 
	C217.100616,104.758698 214.989456,111.315483 213.474869,118.348259 
M152.659973,23.292654 
	C152.659973,23.292654 152.969040,23.213902 152.969040,23.213902 
	C152.969040,23.213902 152.691589,23.446611 153.017685,22.732510 
	C148.905121,11.806104 136.357391,7.361174 126.800453,13.927226 
	C121.018684,17.899565 116.163315,18.191572 110.608559,13.654160 
	C100.457985,5.362645 92.402832,10.479432 86.725624,15.990861 
	C84.835602,17.825693 83.596359,20.330889 82.059616,22.529627 
	C82.364716,22.821852 82.669815,23.114075 82.974915,23.406298 
	C84.391220,22.230036 85.871613,21.122225 87.213196,19.866148 
	C94.646263,12.906788 101.451363,11.539118 108.068855,16.898115 
	C114.239845,21.895510 119.708221,22.267881 125.872429,17.344292 
	C130.188187,13.897132 135.157593,13.801018 139.949295,16.156670 
	C144.377792,18.333752 148.551956,21.028181 152.659973,23.292654 
M102.666496,83.785812 
	C104.410202,85.991013 106.110954,88.231934 107.908180,90.392609 
	C110.303947,93.272858 113.316017,94.788307 117.131210,93.973068 
	C122.492722,92.827423 130.554321,81.910553 130.390671,75.900314 
	C128.227966,77.628639 126.310448,79.525162 124.052002,80.832924 
	C122.636520,81.652573 119.838013,82.417229 119.194611,81.742737 
	C117.922379,80.408997 117.200539,78.057999 117.206856,76.130714 
	C117.213631,74.065048 118.475349,72.035225 118.911339,69.932114 
	C119.643875,66.398590 120.959602,62.736645 120.602798,59.275875 
	C119.722115,50.733810 118.031906,42.275211 116.667099,33.783058 
	C115.004517,34.365677 114.588722,34.715641 114.431969,35.157505 
	C109.931541,47.843658 106.546356,60.511101 112.415764,73.856628 
	C113.348885,75.978294 112.060226,79.077110 111.798752,81.724167 
	C109.279915,80.961533 106.652000,80.438080 104.278954,79.355789 
	C102.574799,78.578560 101.211159,77.054726 99.695610,75.863960 
	C99.417046,76.162926 99.138481,76.461891 98.859917,76.760857 
	C99.985764,78.904030 101.111610,81.047195 102.666496,83.785812 
M131.714828,105.877991 
	C134.961899,112.829117 147.413666,118.309700 154.562347,115.881256 
	C151.944443,114.079369 149.186188,112.498062 146.856567,110.433151 
	C145.813660,109.508743 144.914795,107.410378 145.255356,106.217201 
	C145.605255,104.991425 147.430222,103.658562 148.816681,103.371162 
	C151.383316,102.839134 154.099960,102.979065 156.755692,102.937424 
	C169.555710,102.736717 179.421494,96.217102 190.081512,87.853004 
	C175.208633,87.615913 161.981628,87.664940 151.260086,97.676872 
	C150.422562,98.458946 149.397720,99.372070 148.354980,99.529617 
	C146.514801,99.807625 144.163300,100.189774 142.848663,99.305305 
	C141.874008,98.649574 141.784042,95.988853 142.050812,94.342964 
	C142.431244,91.995918 143.498886,89.760254 144.272980,87.477013 
	C143.850876,87.252724 143.428757,87.028435 143.006653,86.804138 
	C137.421158,91.711998 132.381866,96.993790 131.714828,105.877991 
M135.707367,134.650879 
	C138.144058,133.984085 140.550110,133.140991 143.027817,132.710083 
	C144.793289,132.403061 146.655182,132.650513 148.474045,132.650513 
	C148.544525,131.943298 148.615005,131.236084 148.685486,130.528870 
	C143.759644,128.726105 138.937469,126.514847 133.879868,125.231308 
	C128.425491,123.847076 124.419312,125.860207 122.844360,130.435669 
	C120.527115,137.167648 121.183311,143.937653 123.516556,151.863235 
	C124.885963,147.536285 125.600235,144.318787 126.917229,141.370499 
	C128.432358,137.978653 131.846527,137.690948 133.855240,140.789841 
	C135.180603,142.834549 135.977554,145.295593 136.659714,147.671112 
	C140.354050,160.535934 149.996414,168.042618 161.500412,175.788208 
	C157.340866,161.999649 153.343552,149.858490 141.141296,142.465942 
	C138.728516,141.004196 137.351120,137.833450 135.707367,134.650879 
M62.017509,89.368256 
	C55.259968,88.673729 48.502422,87.979202 41.744881,87.284676 
	C41.616722,87.872780 41.488567,88.460876 41.360409,89.048981 
	C45.308105,91.719620 49.136967,94.590530 53.228695,97.018433 
	C61.283638,101.797997 69.968719,103.928802 79.446716,103.244019 
	C81.379181,103.104401 83.479164,105.283493 85.501930,106.393715 
	C84.319450,108.222664 83.418770,110.349724 81.881233,111.803047 
	C80.071007,113.514130 77.708832,114.641289 75.585999,116.021652 
	C83.011574,116.432076 89.724472,114.918762 95.465752,110.682793 
	C97.035728,109.524460 98.350777,107.301689 98.716454,105.365952 
	C99.777916,99.746857 91.207268,88.004913 85.509201,86.622368 
	C86.514572,89.364380 87.779510,92.101051 88.459755,94.976059 
	C88.790756,96.375023 88.538155,98.621391 87.623238,99.412056 
	C86.652550,100.250923 84.463249,100.241081 83.025352,99.831764 
	C81.335007,99.350594 79.943657,97.911690 78.311989,97.114655 
	C73.158134,94.597076 67.952599,92.185326 62.017509,89.368256 
M93.552551,149.034546 
	C94.353142,146.679565 94.801270,144.107407 96.073349,142.042969 
	C96.981026,140.569916 98.947632,139.041290 100.532883,138.938080 
	C101.624214,138.867035 103.313644,141.003769 103.951813,142.490311 
	C105.075287,145.107315 105.599121,147.981720 106.667152,151.794785 
	C109.333275,144.553665 109.695427,138.280457 108.077171,131.862457 
	C106.827431,126.906036 103.455948,124.161003 98.580299,125.171425 
	C92.589897,126.412865 86.821419,128.725204 80.957016,130.574646 
	C81.087906,131.214493 81.218796,131.854355 81.349686,132.494217 
	C82.988174,132.494217 84.655006,132.301346 86.258835,132.537109 
	C89.017784,132.942673 93.057602,132.709961 94.194382,134.367447 
	C96.448593,137.654221 92.884834,139.893738 90.492912,141.922394 
	C89.988007,142.350616 89.322456,142.609451 88.875412,143.082794 
	C84.813972,147.383118 80.094864,151.267563 76.932526,156.156235 
	C73.511925,161.444153 71.553337,167.677811 68.847542,173.744568 
	C76.655846,173.281021 90.264458,159.605072 93.552551,149.034546 
M105.565025,108.390175 
	C104.235100,113.495178 105.801331,117.585556 110.161469,120.425339 
	C113.837875,122.819809 117.794617,122.620392 121.423401,120.349113 
	C125.326469,117.906158 126.713676,114.091087 125.971680,109.615562 
	C125.215355,105.053589 122.343102,102.264557 117.932968,101.202812 
	C113.027672,100.021851 109.211250,102.152695 105.565025,108.390175 
M146.713425,212.728653 
	C156.587067,212.722397 160.689545,209.818085 164.088593,200.427963 
	C166.571854,193.567841 168.096069,192.463211 175.351440,192.280731 
	C176.680740,192.247299 178.013596,192.285141 179.339691,192.205261 
	C191.605423,191.466400 199.453888,175.885147 192.921585,165.258484 
	C192.846481,165.536240 192.689133,165.819748 192.708084,166.090927 
	C193.681396,180.011124 187.129288,187.809174 173.639969,188.134094 
	C167.567795,188.280334 164.499893,191.450073 163.020126,196.722839 
	C160.987198,203.966553 155.692444,207.047806 148.844650,208.072159 
	C144.587433,208.708969 140.268661,208.934341 135.977524,209.344360 
	C135.949203,209.642395 135.920898,209.940414 135.892593,210.238449 
	C139.220825,211.027969 142.549042,211.817490 146.713425,212.728653 
M27.059208,83.281868 
	C26.948490,80.371994 27.433430,77.278465 26.604504,74.590042 
	C24.814257,68.783806 25.470282,63.710052 29.728086,59.397827 
	C33.360561,55.718922 37.278248,52.321632 40.720829,49.123886 
	C28.947655,48.667530 20.274944,59.268921 23.303343,71.287735 
	C25.532906,80.136208 25.128603,81.360474 18.259144,86.562218 
	C6.963697,95.115448 7.783846,109.905777 20.375351,117.652122 
	C18.761021,114.215012 17.088617,111.213181 15.905526,108.029510 
	C12.487425,98.831482 13.738485,95.046104 21.447784,89.146240 
	C23.394217,87.656662 24.993841,85.713913 27.059208,83.281868 
M56.049065,190.377792 
	C57.148384,192.958649 58.423592,195.480225 59.316574,198.130600 
	C63.181484,209.601669 78.238792,213.531815 88.140785,204.974442 
	C86.358185,205.102493 85.135773,205.119049 83.934647,205.287491 
	C70.097946,207.227692 66.440544,205.221848 61.806946,192.408813 
	C59.912754,187.170914 56.068359,185.077026 51.073475,185.211899 
	C43.166725,185.425400 38.209148,181.468216 35.010933,174.816742 
	C33.241894,171.137573 31.939034,167.234253 30.426031,163.431976 
	C29.996250,163.509842 29.566469,163.587708 29.136688,163.665558 
	C29.690720,167.851303 29.637613,172.236710 30.933903,176.178345 
	C33.159431,182.945557 37.472500,187.460831 45.528000,187.384705 
	C48.842865,187.353363 52.173191,188.957291 56.049065,190.377792 
M68.732414,78.281731 
	C71.762589,79.821831 74.792755,81.361931 78.115120,83.050537 
	C75.587555,77.708023 71.959114,73.723389 66.100739,73.687492 
	C57.863686,73.637024 51.830173,70.290085 47.430607,62.988499 
	C46.772041,69.059128 48.927139,72.922592 54.939751,75.156471 
	C59.060234,76.687370 63.590275,77.115936 68.732414,78.281731 
M132.938156,35.619205 
	C132.176483,37.438980 130.745270,39.267502 130.768906,41.077011 
	C130.871948,48.961666 131.398071,56.840797 131.797333,65.289070 
	C134.952026,61.708652 137.122040,57.929359 135.700989,53.767544 
	C132.880127,45.506107 133.973709,38.237968 139.843689,31.588217 
	C139.515091,31.303722 139.186508,31.019228 138.857910,30.734732 
	C137.021072,32.157997 135.184235,33.581264 132.938156,35.619205 
M65.863533,143.469727 
	C62.985237,151.743042 58.845890,158.828110 49.028454,160.761719 
	C49.993164,161.525375 50.683327,161.935669 51.399818,161.988419 
	C59.610405,162.592957 63.394337,156.961258 67.021645,150.970322 
	C69.754631,146.456482 72.733345,142.091400 75.396881,137.977951 
	C72.133675,137.545959 69.030182,139.801407 65.863533,143.469727 
M86.614120,176.232666 
	C83.542694,183.170135 83.692368,185.607300 88.029533,190.226151 
	C86.907272,181.012634 90.905464,175.020050 97.584724,169.932236 
	C101.472084,166.971115 101.871155,162.080353 101.183533,157.885544 
	C98.161369,161.660294 95.067703,165.538635 91.957352,169.403549 
	C90.296089,171.467804 88.606018,173.508881 86.614120,176.232666 
M179.762924,68.347031 
	C175.881180,69.978996 172.071503,72.729164 168.101089,72.985008 
	C161.899475,73.384621 157.584869,75.646729 154.278778,80.880669 
	C159.439377,79.548706 164.362671,78.434090 169.184402,76.982101 
	C172.779846,75.899406 176.487534,74.801575 179.700974,72.942543 
	C183.211472,70.911659 185.331757,67.582344 184.677048,62.478294 
	C182.940491,64.594833 181.605347,66.222145 179.762924,68.347031 
M99.020790,60.968456 
	C99.294662,57.029251 99.793709,53.089272 99.780212,49.151051 
	C99.766205,45.062885 99.810875,40.831268 98.791107,36.934212 
	C97.944466,33.698746 95.732239,30.665623 91.079788,31.113596 
	C96.173515,37.174294 97.794662,43.586262 95.144875,51.039577 
	C93.345322,56.101360 95.417679,60.449657 99.048103,65.079529 
	C99.048103,63.419693 99.048103,62.614067 99.020790,60.968456 
M170.619232,154.815292 
	C169.290665,152.169357 167.871765,149.564255 166.652786,146.868759 
	C164.302338,141.671219 160.221359,139.018692 155.930771,139.199341 
	C158.261856,142.654297 160.851059,146.708450 163.666138,150.599197 
	C166.155518,154.039795 168.534256,157.695007 171.630890,160.522812 
	C174.572235,163.208817 178.451324,164.079285 181.980103,162.029724 
	C178.341736,159.788956 174.734024,157.567062 170.619232,154.815292 
M132.439362,168.962204 
	C139.483246,173.767166 142.991623,180.375763 141.946259,190.220520 
	C143.241913,188.666687 143.722855,188.252731 144.001419,187.730774 
	C146.934158,182.235703 144.944687,175.671432 139.059753,169.486435 
	C135.313187,165.548828 132.056580,161.145004 129.027206,157.489532 
	C128.022629,160.992981 128.627258,163.944336 132.439362,168.962204 
M197.197464,109.350716 
	C197.511093,109.392639 197.824539,109.460426 198.138458,109.462708 
	C198.251083,109.463524 198.476242,109.264244 198.462280,109.227295 
	C197.046127,105.482483 191.019058,102.568695 185.553802,104.241692 
	C178.357788,106.444481 171.488571,109.714745 164.003647,112.716614 
	C169.403870,114.789284 173.944168,114.547417 178.189102,111.291672 
	C183.855972,106.945343 190.039490,106.569473 197.197464,109.350716 
M64.912056,112.719116 
	C65.465302,112.291000 66.018539,111.862877 65.729164,112.086807 
	C61.152744,110.220070 56.380161,108.127823 51.498154,106.333260 
	C48.260983,105.143311 44.902390,103.792107 41.533504,103.589828 
	C38.141701,103.386177 34.349304,103.865776 32.071701,108.230286 
	C33.930668,107.967384 35.222523,107.847656 36.487747,107.594734 
	C41.615673,106.569595 46.444351,107.137016 50.591522,110.536179 
	C54.711143,113.912758 59.225788,114.458641 64.912056,112.719116 
z"/>
<path fill="#FEFCFE" opacity="1.000000" stroke="none" 
	d="
M1.000001,109.468658 
	C1.576112,109.479408 2.409644,109.841003 2.690821,110.455399 
	C10.468862,127.450928 23.485682,134.967804 42.197884,133.241913 
	C43.599133,133.112671 45.022655,133.224945 46.624973,133.224945 
	C42.403522,136.098892 38.107513,138.557907 34.350025,141.667618 
	C22.317577,151.625717 19.020027,164.692017 22.526442,179.400024 
	C25.470432,191.748886 36.039158,198.373795 49.602398,197.169785 
	C49.888332,197.802124 50.373062,198.489975 50.514137,199.242294 
	C54.005600,217.861771 71.988060,222.800446 86.465775,217.455063 
	C101.652260,211.848007 108.542290,199.667953 110.948692,184.379745 
	C111.072380,183.593948 111.179306,182.805496 111.526711,181.944305 
	C113.648407,202.628448 122.843918,217.264145 144.775940,221.699341 
	C97.081841,222.000000 49.163685,222.000000 1.000000,222.000000 
	C1.000000,184.646133 1.000000,147.291718 1.000001,109.468658 
z"/>
<path fill="#FEFDFE" opacity="1.000000" stroke="none" 
	d="
M229.000000,101.531342 
	C226.119125,95.117279 222.831894,88.547401 215.595718,85.454109 
	C221.016891,69.880188 219.028793,61.184868 208.510651,52.961918 
	C197.094360,44.036812 181.237045,43.546040 168.422394,51.814911 
	C165.195282,53.897251 162.133133,56.235199 158.703629,58.144821 
	C166.497192,42.328697 167.386261,27.327570 155.748230,13.051146 
	C145.610428,0.615047 132.370102,-1.190054 119.355331,8.221912 
	C118.836281,8.597272 118.302094,8.951722 118.855911,8.569095 
	C113.189491,6.021698 108.298676,3.822979 103.203934,1.312130 
	C144.918915,1.000000 186.837814,1.000000 229.000000,1.000000 
	C229.000000,34.353832 229.000000,67.708260 229.000000,101.531342 
z"/>
<path fill="#FEFDFE" opacity="1.000000" stroke="none" 
	d="
M95.531342,1.000000 
	C90.398064,4.309927 83.767090,6.623217 79.401558,11.130628 
	C69.320114,21.539709 68.546104,34.451721 72.788353,47.851704 
	C73.529442,50.192558 74.539772,52.447937 75.402740,54.751411 
	C75.434624,54.836502 75.222885,55.012867 74.917015,55.429676 
	C72.007004,53.047527 69.203255,50.533504 66.181496,48.316647 
	C53.203018,38.795235 35.957077,38.678902 22.765781,47.919277 
	C14.998584,53.360126 11.193205,64.229515 13.804793,73.620300 
	C14.246498,75.208595 14.845181,76.753227 15.491875,78.676514 
	C9.061796,82.408127 3.640917,87.127762 1.324951,94.852524 
	C1.000000,63.739353 1.000000,32.478706 1.000000,1.000000 
	C32.353889,1.000000 63.708286,1.000000 95.531342,1.000000 
z"/>
<path fill="#FEFDFE" opacity="1.000000" stroke="none" 
	d="
M155.468658,222.000000 
	C158.644791,219.840897 162.998260,218.338318 165.758026,215.359314 
	C169.344376,211.488113 171.663696,206.443130 174.865601,201.368881 
	C184.970978,203.241867 193.860123,199.696243 199.620987,189.799179 
	C206.141891,178.596420 205.318085,167.267670 199.148315,156.180573 
	C194.915009,148.573349 188.170166,143.621826 180.475708,139.124649 
	C203.725296,142.164062 220.859985,134.965485 228.737244,111.252739 
	C229.000000,147.912292 229.000000,184.824600 229.000000,222.000000 
	C204.646408,222.000000 180.291855,222.000000 155.468658,222.000000 
z"/>
<path fill="#F8F2F8" opacity="1.000000" stroke="none" 
	d="
M102.451981,83.488083 
	C101.111610,81.047195 99.985764,78.904030 98.859917,76.760857 
	C99.138481,76.461891 99.417046,76.162926 99.695610,75.863960 
	C101.211159,77.054726 102.574799,78.578560 104.278954,79.355789 
	C106.652000,80.438080 109.279915,80.961533 111.798752,81.724167 
	C112.060226,79.077110 113.348885,75.978294 112.415764,73.856628 
	C106.546356,60.511101 109.931541,47.843658 114.431969,35.157505 
	C114.588722,34.715641 115.004517,34.365677 116.667099,33.783058 
	C118.031906,42.275211 119.722115,50.733810 120.602798,59.275875 
	C120.959602,62.736645 119.643875,66.398590 118.911339,69.932114 
	C118.475349,72.035225 117.213631,74.065048 117.206856,76.130714 
	C117.200539,78.057999 117.922379,80.408997 119.194611,81.742737 
	C119.838013,82.417229 122.636520,81.652573 124.052002,80.832924 
	C126.310448,79.525162 128.227966,77.628639 130.390671,75.900314 
	C130.554321,81.910553 122.492722,92.827423 117.131210,93.973068 
	C113.316017,94.788307 110.303947,93.272858 107.908180,90.392609 
	C106.110954,88.231934 104.410202,85.991013 102.451981,83.488083 
z"/>
<path fill="#F9F4F9" opacity="1.000000" stroke="none" 
	d="
M131.635986,105.519470 
	C132.381866,96.993790 137.421158,91.711998 143.006653,86.804138 
	C143.428757,87.028435 143.850876,87.252724 144.272980,87.477013 
	C143.498886,89.760254 142.431244,91.995918 142.050812,94.342964 
	C141.784042,95.988853 141.874008,98.649574 142.848663,99.305305 
	C144.163300,100.189774 146.514801,99.807625 148.354980,99.529617 
	C149.397720,99.372070 150.422562,98.458946 151.260086,97.676872 
	C161.981628,87.664940 175.208633,87.615913 190.081512,87.853004 
	C179.421494,96.217102 169.555710,102.736717 156.755692,102.937424 
	C154.099960,102.979065 151.383316,102.839134 148.816681,103.371162 
	C147.430222,103.658562 145.605255,104.991425 145.255356,106.217201 
	C144.914795,107.410378 145.813660,109.508743 146.856567,110.433151 
	C149.186188,112.498062 151.944443,114.079369 154.562347,115.881256 
	C147.413666,118.309700 134.961899,112.829117 131.635986,105.519470 
z"/>
<path fill="#FAF6FA" opacity="1.000000" stroke="none" 
	d="
M135.601807,135.050842 
	C137.351120,137.833450 138.728516,141.004196 141.141296,142.465942 
	C153.343552,149.858490 157.340866,161.999649 161.500412,175.788208 
	C149.996414,168.042618 140.354050,160.535934 136.659714,147.671112 
	C135.977554,145.295593 135.180603,142.834549 133.855240,140.789841 
	C131.846527,137.690948 128.432358,137.978653 126.917229,141.370499 
	C125.600235,144.318787 124.885963,147.536285 123.516556,151.863235 
	C121.183311,143.937653 120.527115,137.167648 122.844360,130.435669 
	C124.419312,125.860207 128.425491,123.847076 133.879868,125.231308 
	C138.937469,126.514847 143.759644,128.726105 148.685486,130.528870 
	C148.615005,131.236084 148.544525,131.943298 148.474045,132.650513 
	C146.655182,132.650513 144.793289,132.403061 143.027817,132.710083 
	C140.550110,133.140991 138.144058,133.984085 135.601807,135.050842 
z"/>
<path fill="#F9F4F9" opacity="1.000000" stroke="none" 
	d="
M62.392284,89.550446 
	C67.952599,92.185326 73.158134,94.597076 78.311989,97.114655 
	C79.943657,97.911690 81.335007,99.350594 83.025352,99.831764 
	C84.463249,100.241081 86.652550,100.250923 87.623238,99.412056 
	C88.538155,98.621391 88.790756,96.375023 88.459755,94.976059 
	C87.779510,92.101051 86.514572,89.364380 85.509201,86.622368 
	C91.207268,88.004913 99.777916,99.746857 98.716454,105.365952 
	C98.350777,107.301689 97.035728,109.524460 95.465752,110.682793 
	C89.724472,114.918762 83.011574,116.432076 75.585999,116.021652 
	C77.708832,114.641289 80.071007,113.514130 81.881233,111.803047 
	C83.418770,110.349724 84.319450,108.222664 85.501930,106.393715 
	C83.479164,105.283493 81.379181,103.104401 79.446716,103.244019 
	C69.968719,103.928802 61.283638,101.797997 53.228695,97.018433 
	C49.136967,94.590530 45.308105,91.719620 41.360409,89.048981 
	C41.488567,88.460876 41.616722,87.872780 41.744881,87.284676 
	C48.502422,87.979202 55.259968,88.673729 62.392284,89.550446 
z"/>
<path fill="#FAF5FA" opacity="1.000000" stroke="none" 
	d="
M93.410706,149.399323 
	C90.264458,159.605072 76.655846,173.281021 68.847542,173.744568 
	C71.553337,167.677811 73.511925,161.444153 76.932526,156.156235 
	C80.094864,151.267563 84.813972,147.383118 88.875412,143.082794 
	C89.322456,142.609451 89.988007,142.350616 90.492912,141.922394 
	C92.884834,139.893738 96.448593,137.654221 94.194382,134.367447 
	C93.057602,132.709961 89.017784,132.942673 86.258835,132.537109 
	C84.655006,132.301346 82.988174,132.494217 81.349686,132.494217 
	C81.218796,131.854355 81.087906,131.214493 80.957016,130.574646 
	C86.821419,128.725204 92.589897,126.412865 98.580299,125.171425 
	C103.455948,124.161003 106.827431,126.906036 108.077171,131.862457 
	C109.695427,138.280457 109.333275,144.553665 106.667152,151.794785 
	C105.599121,147.981720 105.075287,145.107315 103.951813,142.490311 
	C103.313644,141.003769 101.624214,138.867035 100.532883,138.938080 
	C98.947632,139.041290 96.981026,140.569916 96.073349,142.042969 
	C94.801270,144.107407 94.353142,146.679565 93.410706,149.399323 
z"/>
<path fill="#FBF8FB" opacity="1.000000" stroke="none" 
	d="
M105.706146,108.026154 
	C109.211250,102.152695 113.027672,100.021851 117.932968,101.202812 
	C122.343102,102.264557 125.215355,105.053589 125.971680,109.615562 
	C126.713676,114.091087 125.326469,117.906158 121.423401,120.349113 
	C117.794617,122.620392 113.837875,122.819809 110.161469,120.425339 
	C105.801331,117.585556 104.235100,113.495178 105.706146,108.026154 
z"/>
<path fill="#F3E8F3" opacity="1.000000" stroke="none" 
	d="
M146.295349,212.667831 
	C142.549042,211.817490 139.220825,211.027969 135.892593,210.238449 
	C135.920898,209.940414 135.949203,209.642395 135.977524,209.344360 
	C140.268661,208.934341 144.587433,208.708969 148.844650,208.072159 
	C155.692444,207.047806 160.987198,203.966553 163.020126,196.722839 
	C164.499893,191.450073 167.567795,188.280334 173.639969,188.134094 
	C187.129288,187.809174 193.681396,180.011124 192.708084,166.090927 
	C192.689133,165.819748 192.846481,165.536240 192.922119,165.258636 
	C199.453888,175.885147 191.605423,191.466400 179.339691,192.205261 
	C178.013596,192.285141 176.680740,192.247299 175.351440,192.280731 
	C168.096069,192.463211 166.571854,193.567841 164.088593,200.427963 
	C160.689545,209.818085 156.587067,212.722397 146.295349,212.667831 
z"/>
<path fill="#F3E9F3" opacity="1.000000" stroke="none" 
	d="
M26.906021,83.630638 
	C24.993841,85.713913 23.394217,87.656662 21.447784,89.146240 
	C13.738485,95.046104 12.487425,98.831482 15.905526,108.029510 
	C17.088617,111.213181 18.761021,114.215012 20.375351,117.652122 
	C7.783846,109.905777 6.963697,95.115448 18.259144,86.562218 
	C25.128603,81.360474 25.532906,80.136208 23.303343,71.287735 
	C20.274944,59.268921 28.947655,48.667530 40.720829,49.123886 
	C37.278248,52.321632 33.360561,55.718922 29.728086,59.397827 
	C25.470282,63.710052 24.814257,68.783806 26.604504,74.590042 
	C27.433430,77.278465 26.948490,80.371994 26.906021,83.630638 
z"/>
<path fill="#F3E9F3" opacity="1.000000" stroke="none" 
	d="
M55.772774,190.097595 
	C52.173191,188.957291 48.842865,187.353363 45.528000,187.384705 
	C37.472500,187.460831 33.159431,182.945557 30.933903,176.178345 
	C29.637613,172.236710 29.690720,167.851303 29.136688,163.665558 
	C29.566469,163.587708 29.996250,163.509842 30.426031,163.431976 
	C31.939034,167.234253 33.241894,171.137573 35.010933,174.816742 
	C38.209148,181.468216 43.166725,185.425400 51.073475,185.211899 
	C56.068359,185.077026 59.912754,187.170914 61.806946,192.408813 
	C66.440544,205.221848 70.097946,207.227692 83.934647,205.287491 
	C85.135773,205.119049 86.358185,205.102493 88.140785,204.974442 
	C78.238792,213.531815 63.181484,209.601669 59.316574,198.130600 
	C58.423592,195.480225 57.148384,192.958649 55.772774,190.097595 
z"/>
<path fill="#F2E7F2" opacity="1.000000" stroke="none" 
	d="
M152.838120,23.494766 
	C148.551956,21.028181 144.377792,18.333752 139.949295,16.156670 
	C135.157593,13.801018 130.188187,13.897132 125.872429,17.344292 
	C119.708221,22.267881 114.239845,21.895510 108.068855,16.898115 
	C101.451363,11.539118 94.646263,12.906788 87.213196,19.866148 
	C85.871613,21.122225 84.391220,22.230036 82.974915,23.406298 
	C82.669815,23.114075 82.364716,22.821852 82.059616,22.529627 
	C83.596359,20.330889 84.835602,17.825693 86.725624,15.990861 
	C92.402832,10.479432 100.457985,5.362645 110.608559,13.654160 
	C116.163315,18.191572 121.018684,17.899565 126.800453,13.927226 
	C136.357391,7.361174 148.905121,11.806104 152.900787,23.072641 
	C152.783890,23.412773 152.838120,23.494766 152.838120,23.494766 
z"/>
<path fill="#F4EBF4" opacity="1.000000" stroke="none" 
	d="
M213.349304,97.603607 
	C212.499222,96.809586 211.753693,95.845352 210.782379,95.248726 
	C203.613663,90.845383 201.842560,85.229004 204.886383,77.066536 
	C207.924042,68.920609 203.971756,62.734196 194.319870,57.959656 
	C192.712509,57.164532 191.016251,56.549118 189.165070,55.767948 
	C198.948761,52.604733 211.688477,63.761959 210.175568,73.871597 
	C210.004211,75.016617 209.650574,76.140411 209.314331,77.253769 
	C205.985306,88.276939 205.981293,88.275726 214.799438,96.268822 
	C214.094742,97.129967 213.722031,97.366791 213.349304,97.603607 
z"/>
<path fill="#EFE2EF" opacity="1.000000" stroke="none" 
	d="
M68.334824,78.159500 
	C63.590275,77.115936 59.060234,76.687370 54.939751,75.156471 
	C48.927139,72.922592 46.772041,69.059128 47.430607,62.988499 
	C51.830173,70.290085 57.863686,73.637024 66.100739,73.687492 
	C71.959114,73.723389 75.587555,77.708023 78.115120,83.050537 
	C74.792755,81.361931 71.762589,79.821831 68.334824,78.159500 
z"/>
<path fill="#F0E4F0" opacity="1.000000" stroke="none" 
	d="
M133.142776,35.311867 
	C135.184235,33.581264 137.021072,32.157997 138.857910,30.734732 
	C139.186508,31.019228 139.515091,31.303722 139.843689,31.588217 
	C133.973709,38.237968 132.880127,45.506107 135.700989,53.767544 
	C137.122040,57.929359 134.952026,61.708652 131.797333,65.289070 
	C131.398071,56.840797 130.871948,48.961666 130.768906,41.077011 
	C130.745270,39.267502 132.176483,37.438980 133.142776,35.311867 
z"/>
<path fill="#F2E7F2" opacity="1.000000" stroke="none" 
	d="
M66.078384,143.170898 
	C69.030182,139.801407 72.133675,137.545959 75.396881,137.977951 
	C72.733345,142.091400 69.754631,146.456482 67.021645,150.970322 
	C63.394337,156.961258 59.610405,162.592957 51.399818,161.988419 
	C50.683327,161.935669 49.993164,161.525375 49.028454,160.761719 
	C58.845890,158.828110 62.985237,151.743042 66.078384,143.170898 
z"/>
<path fill="#F3E8F3" opacity="1.000000" stroke="none" 
	d="
M86.771538,175.896545 
	C88.606018,173.508881 90.296089,171.467804 91.957352,169.403549 
	C95.067703,165.538635 98.161369,161.660294 101.183533,157.885544 
	C101.871155,162.080353 101.472084,166.971115 97.584724,169.932236 
	C90.905464,175.020050 86.907272,181.012634 88.029533,190.226151 
	C83.692368,185.607300 83.542694,183.170135 86.771538,175.896545 
z"/>
<path fill="#F2E6F2" opacity="1.000000" stroke="none" 
	d="
M180.016556,68.098251 
	C181.605347,66.222145 182.940491,64.594833 184.677048,62.478294 
	C185.331757,67.582344 183.211472,70.911659 179.700974,72.942543 
	C176.487534,74.801575 172.779846,75.899406 169.184402,76.982101 
	C164.362671,78.434090 159.439377,79.548706 154.278778,80.880669 
	C157.584869,75.646729 161.899475,73.384621 168.101089,72.985008 
	C172.071503,72.729164 175.881180,69.978996 180.016556,68.098251 
z"/>
<path fill="#F2E7F2" opacity="1.000000" stroke="none" 
	d="
M99.034447,61.388447 
	C99.048103,62.614067 99.048103,63.419693 99.048103,65.079529 
	C95.417679,60.449657 93.345322,56.101360 95.144875,51.039577 
	C97.794662,43.586262 96.173515,37.174294 91.079788,31.113596 
	C95.732239,30.665623 97.944466,33.698746 98.791107,36.934212 
	C99.810875,40.831268 99.766205,45.062885 99.780212,49.151051 
	C99.793709,53.089272 99.294662,57.029251 99.034447,61.388447 
z"/>
<path fill="#F3E9F3" opacity="1.000000" stroke="none" 
	d="
M170.872772,155.080231 
	C174.734024,157.567062 178.341736,159.788956 181.980103,162.029724 
	C178.451324,164.079285 174.572235,163.208817 171.630890,160.522812 
	C168.534256,157.695007 166.155518,154.039795 163.666138,150.599197 
	C160.851059,146.708450 158.261856,142.654297 155.930771,139.199341 
	C160.221359,139.018692 164.302338,141.671219 166.652786,146.868759 
	C167.871765,149.564255 169.290665,152.169357 170.872772,155.080231 
z"/>
<path fill="#F1E5F1" opacity="1.000000" stroke="none" 
	d="
M132.162079,168.726379 
	C128.627258,163.944336 128.022629,160.992981 129.027206,157.489532 
	C132.056580,161.145004 135.313187,165.548828 139.059753,169.486435 
	C144.944687,175.671432 146.934158,182.235703 144.001419,187.730774 
	C143.722855,188.252731 143.241913,188.666687 141.946259,190.220520 
	C142.991623,180.375763 139.483246,173.767166 132.162079,168.726379 
z"/>
<path fill="#F2E7F2" opacity="1.000000" stroke="none" 
	d="
M196.877747,109.192230 
	C190.039490,106.569473 183.855972,106.945343 178.189102,111.291672 
	C173.944168,114.547417 169.403870,114.789284 164.003647,112.716614 
	C171.488571,109.714745 178.357788,106.444481 185.553802,104.241692 
	C191.019058,102.568695 197.046127,105.482483 198.462280,109.227295 
	C198.476242,109.264244 198.251083,109.463524 198.138458,109.462708 
	C197.824539,109.460426 197.511093,109.392639 196.877747,109.192230 
z"/>
<path fill="#F2E8F2" opacity="1.000000" stroke="none" 
	d="
M64.535095,112.824432 
	C59.225788,114.458641 54.711143,113.912758 50.591522,110.536179 
	C46.444351,107.137016 41.615673,106.569595 36.487747,107.594734 
	C35.222523,107.847656 33.930668,107.967384 32.071701,108.230286 
	C34.349304,103.865776 38.141701,103.386177 41.533504,103.589828 
	C44.902390,103.792107 48.260983,105.143311 51.498154,106.333260 
	C56.380161,108.127823 61.152744,110.220070 65.729164,112.086807 
	C66.018539,111.862877 65.465302,112.291000 64.535095,112.824432 
z"/>
<path fill="#F4EBF4" opacity="1.000000" stroke="none" 
	d="
M213.945755,117.856956 
	C214.989456,111.315483 217.100616,104.758698 213.507126,97.942543 
	C213.722031,97.366791 214.094742,97.129967 215.036285,96.553604 
	C220.845917,100.875961 221.802734,107.461945 218.209427,115.066559 
	C217.300156,116.990875 216.042633,118.750648 214.582596,120.296036 
	C214.128616,119.289673 214.037186,118.573318 213.945755,117.856956 
z"/>
<path fill="#F2E7F2" opacity="1.000000" stroke="none" 
	d="
M213.710312,118.102608 
	C214.037186,118.573318 214.128616,119.289673 214.301910,120.541489 
	C213.797409,121.716690 213.211075,122.356445 212.624741,122.996201 
	C212.409851,122.866302 212.194962,122.736397 211.980087,122.606491 
	C212.478348,121.187080 212.976608,119.767670 213.710312,118.102608 
z"/>
<path fill="#F2E7F2" opacity="1.000000" stroke="none" 
	d="
M152.737732,23.429691 
	C152.691589,23.446611 152.969040,23.213902 152.969040,23.213902 
	C152.969040,23.213902 152.659973,23.292654 152.749054,23.393711 
	C152.838120,23.494766 152.783890,23.412773 152.737732,23.429691 
z"/>
</svg>