<?xml version="1.0" encoding="utf-8"?>
<!-- Generator: Adobe Illustrator 27.9.0, SVG Export Plug-In . SVG Version: 6.00 Build 0)  -->
<svg version="1.1" id="Layer_1" xmlns="http://www.w3.org/2000/svg" xmlns:xlink="http://www.w3.org/1999/xlink" x="0px" y="0px"
	 viewBox="0 0 800 800" style="enable-background:new 0 0 800 800;" xml:space="preserve">
<style type="text/css">
	.st0{fill:#CA82D2;}
	.st1{fill:#402B4E;}
</style>
<g>
	<path class="st0" d="M243,504.7c0,0-106.6,61.9-81.3,236.7c0,0,88,0.5,128.4,33.7s219.4-81.6,102.6-244c0,0,36.8,156.5,180.5,155.5
		c0,0,50.9-11,77.8,0S753.4,473.4,578,432.9c0,0,97-16,136-107.8c0,0,6-34.6,56.9-49.6c0,0-241.6-220.3-333.4-2.4
		c0,0,23.4-109.7-34.2-158.4c0,0-78.6-78.1-72.6-105.3c0,0-216,107.8-40.6,315.7c0,0-70.2-94.5-174.9-56S64,433.8,16.5,453.4
		C16.5,453.4,125.3,563.3,243,504.7z"/>
	<path class="st1" d="M348.3,372.8c0,0-41.1-34-58.2-8s24,40.8,24,40.8S269.8,385.3,264,424s42.1,20.1,42.1,20.1s-45.1,14.9-16,38.7
		s43.6-13.2,43.6-13.2s-8,49.4,28.1,35.9s37-51.6,16-52.2c0,0,41.5,52.2,55,13s-39-42.2-39-42.2s58,18.6,64.7-9.4
		s-55.4-48-64.7-19.6c0,0,42.2-44.4,9.7-52.2S342.6,338.8,348.3,372.8z"/>
</g>
</svg>
