<svg xmlns="http://www.w3.org/2000/svg" xmlns:xlink="http://www.w3.org/1999/xlink" version="1.1" width="925.907pt" height="824.923pt" viewBox="0 0 925.907 824.923">
<defs>
<clipPath id="clip_0">
<path transform="matrix(1,0,0,-1,0,824.923)" d="M0 0H925.907V824.923H0Z" fill-rule="evenodd"/>
</clipPath>
<clipPath id="clip_1">
<path transform="matrix(1,0,0,-1,0,824.923)" d="M0 0H926V825H0Z" fill-rule="evenodd"/>
</clipPath>
<clipPath id="clip_2">
<path transform="matrix(1,0,0,-1,0,824.923)" d="M0 0H926V825H0Z" fill-rule="evenodd"/>
</clipPath>
<clipPath id="clip_3">
<path transform="matrix(1,0,0,-1,0,824.923)" d="M0 0H926V825H0Z" fill-rule="evenodd"/>
</clipPath>
<clipPath id="clip_4">
<path transform="matrix(1,0,0,-1,0,824.923)" d="M0 0H926V825H0Z" fill-rule="evenodd"/>
</clipPath>
<clipPath id="clip_5">
<path transform="matrix(1,0,0,-1,0,824.923)" d="M0 0H926V825H0Z" fill-rule="evenodd"/>
</clipPath>
<clipPath id="clip_6">
<path transform="matrix(1,0,0,-1,0,824.923)" d="M0 0H926V825H0Z" fill-rule="evenodd"/>
</clipPath>
<clipPath id="clip_7">
<path transform="matrix(1,0,0,-1,0,824.923)" d="M0 0H926V825H0Z" fill-rule="evenodd"/>
</clipPath>
<clipPath id="clip_8">
<path transform="matrix(1,0,0,-1,0,824.923)" d="M0 0H926V825H0Z" fill-rule="evenodd"/>
</clipPath>
<clipPath id="clip_9">
<path transform="matrix(1,0,0,-1,0,824.923)" d="M0 0H926V825H0Z" fill-rule="evenodd"/>
</clipPath>
<clipPath id="clip_10">
<path transform="matrix(1,0,0,-1,0,824.923)" d="M0 0H926V825H0Z" fill-rule="evenodd"/>
</clipPath>
<clipPath id="clip_11">
<path transform="matrix(1,0,0,-1,0,824.923)" d="M0 0H926V825H0Z" fill-rule="evenodd"/>
</clipPath>
<clipPath id="clip_12">
<path transform="matrix(1,0,0,-1,0,824.923)" d="M0 0H926V825H0Z" fill-rule="evenodd"/>
</clipPath>
<clipPath id="clip_13">
<path transform="matrix(1,0,0,-1,0,824.923)" d="M0 0H926V825H0Z" fill-rule="evenodd"/>
</clipPath>
<clipPath id="clip_14">
<path transform="matrix(1,0,0,-1,0,824.923)" d="M0 0H926V825H0Z" fill-rule="evenodd"/>
</clipPath>
<clipPath id="clip_15">
<path transform="matrix(1,0,0,-1,0,824.923)" d="M0 0H926V825H0Z" fill-rule="evenodd"/>
</clipPath>
<clipPath id="clip_16">
<path transform="matrix(1,0,0,-1,0,824.923)" d="M0 0H926V825H0Z" fill-rule="evenodd"/>
</clipPath>
<clipPath id="clip_17">
<path transform="matrix(1,0,0,-1,0,824.923)" d="M0 0H926V825H0Z" fill-rule="evenodd"/>
</clipPath>
<clipPath id="clip_18">
<path transform="matrix(1,0,0,-1,0,824.923)" d="M0 0H926V825H0Z" fill-rule="evenodd"/>
</clipPath>
<clipPath id="clip_19">
<path transform="matrix(1,0,0,-1,0,824.923)" d="M0 0H926V825H0Z" fill-rule="evenodd"/>
</clipPath>
<clipPath id="clip_20">
<path transform="matrix(1,0,0,-1,0,824.923)" d="M0 0H926V825H0Z" fill-rule="evenodd"/>
</clipPath>
<clipPath id="clip_21">
<path transform="matrix(1,0,0,-1,0,824.923)" d="M0 0H926V825H0Z" fill-rule="evenodd"/>
</clipPath>
<clipPath id="clip_22">
<path transform="matrix(1,0,0,-1,0,824.923)" d="M0 0H926V825H0Z" fill-rule="evenodd"/>
</clipPath>
<clipPath id="clip_23">
<path transform="matrix(1,0,0,-1,0,824.923)" d="M0 0H926V825H0Z" fill-rule="evenodd"/>
</clipPath>
<clipPath id="clip_24">
<path transform="matrix(1,0,0,-1,0,824.923)" d="M0 0H926V825H0Z" fill-rule="evenodd"/>
</clipPath>
</defs>
<g>
<g clip-path="url(#clip_0)">
<path transform="matrix(1,0,0,-1,0,824.923)" d="M-30.2713-37.3297H1264.7288V974.6703H-30.2713Z" fill="#ffffff" fill-rule="evenodd"/>
<path transform="matrix(1,0,0,-1,0,824.923)" d="M902.52 849.067V-23.783C902.52-24.0592 902.296-24.283 902.02-24.283H-5.87654C-6.15268-24.283-6.37654-24.0592-6.37654-23.783V849.067C-6.37654 849.344-6.15268 849.567-5.87654 849.567H902.02C902.296 849.567 902.52 849.344 902.52 849.067ZM901.52 848.567H-5.37654L-5.37653-23.283H901.52Z" fill="#ffffff" fill-rule="evenodd"/>
<path transform="matrix(1,0,0,-1,0,824.923)" d="M427.729 734.67C446.959 734.67 466.148 732.881 485.047 729.325L483.198 719.497C464.909 722.939 446.339 724.67 427.729 724.67Z" fill="#1f77b4" fill-opacity=".8"/>
<path transform="matrix(1,0,0,-1,0,824.923)" d="M495.169 727.246C572.369 710.039 640.073 663.973 684.419 598.48L676.139 592.873C633.223 656.254 567.703 700.833 492.993 717.485Z" fill="#ff7f0e" fill-opacity=".8"/>
<path transform="matrix(1,0,0,-1,0,824.923)" d="M690.069 589.829C698.182 576.942 705.335 563.474 711.469 549.536L702.316 545.508C696.38 558.997 689.458 572.03 681.607 584.501Z" fill="#f7b6d2" fill-opacity=".8"/>
<path transform="matrix(1,0,0,-1,0,824.923)" d="M715.473 540.01C750.701 452.124 743.834 352.957 696.826 270.766L688.146 275.731C733.637 355.271 740.283 451.239 706.191 536.29Z" fill="#2ca02c" fill-opacity=".8"/>
<path transform="matrix(1,0,0,-1,0,824.923)" d="M691.548 261.884C681.082 244.922 669.005 229.01 655.484 214.367L648.137 221.151C661.222 235.321 672.909 250.72 683.037 267.135Z" fill="#9edae5" fill-opacity=".8"/>
<path transform="matrix(1,0,0,-1,0,824.923)" d="M648.349 206.893C591.466 149.268 514.293 116.185 433.335 114.721L433.154 124.719C511.501 126.136 586.184 158.152 641.232 213.918Z" fill="#c7c7c7" fill-opacity=".8"/>
<path transform="matrix(1,0,0,-1,0,824.923)" d="M423.002 114.706C319.742 116.281 224.046 169.174 167.78 255.772L176.165 261.22C230.616 177.415 323.225 126.229 423.155 124.705Z" fill="#dbdb8d" fill-opacity=".8"/>
<path transform="matrix(1,0,0,-1,0,824.923)" d="M162.295 264.529C137.125 306.249 122.143 353.314 118.566 401.907L128.539 402.641C132.001 355.616 146.499 310.069 170.858 269.695Z" fill="#9467bd" fill-opacity=".8"/>
<path transform="matrix(1,0,0,-1,0,824.923)" d="M117.979 412.223C115.719 468.449 128.807 524.231 155.838 573.585L164.609 568.781C138.45 521.019 125.784 467.037 127.971 412.624Z" fill="#d62728" fill-opacity=".8"/>
<path transform="matrix(1,0,0,-1,0,824.923)" d="M160.952 582.563C214.879 673.678 311.579 730.969 417.397 734.498L417.731 724.504C315.325 721.089 221.745 665.646 169.558 577.47Z" fill="#c49c94" fill-opacity=".8"/>
<text xml:space="preserve" transform="matrix(1 0 -0 1 423.589 72.20398)" font-size="20" font-family="Helvetica"><tspan y="0" x="0 13.342001 23.344002 33.346 51.872 62.996007 79.658008 90.782009">AskWomen</tspan></text>
<text xml:space="preserve" transform="matrix(1 0 -0 1 616.518 148.38397)" font-size="20" font-family="Helvetica"><tspan y="0" x="0 15.556002 26.680003 43.342004 54.466009">Games</tspan></text>
<text xml:space="preserve" transform="matrix(1 0 -0 1 710.065 261.41096)" font-size="20" font-family="Helvetica"><tspan y="0" x="0 11.124001 25.568003 36.692007 50.034006 64.478008 75.602008 82.26401 93.38801 110.05001 121.17401 131.17601 142.3 158.962 170.086">TwoXChromosomes</tspan></text>
<text xml:space="preserve" transform="matrix(1 0 -0 1 755.576 434.99198)" font-size="20" font-family="Helvetica"><tspan y="0" x="0 11.124001 22.248002 36.692007">news</tspan></text>
<text xml:space="preserve" transform="matrix(1 0 -0 1 680.865 602.11)" font-size="20" font-family="Helvetica"><tspan y="0" x="0 11.124001 22.248002 26.692002 31.136002 36.694005 41.138006 51.140005">politics</tspan></text>
<text xml:space="preserve" transform="matrix(1 0 -0 1 555.216 702.67098)" font-size="20" font-family="Helvetica"><tspan y="0" x="0 6.6619999 17.786002 22.230002 33.354005 38.912008 43.356008 54.480009 65.604007 75.606 86.73 91.174 102.298007 113.422008 124.546009 135.67 145.672 150.116 160.118">relationship_advice</tspan></text>
<text xml:space="preserve" transform="matrix(1 0 -0 1 244.976 737.64938)" font-size="20" font-family="Helvetica"><tspan y="0" x="0 6.6619999 17.786002 22.230002 33.354005 38.912008 43.356008 54.480009 65.604007 75.606 86.73 91.174 102.298007">relationships</tspan></text>
<text xml:space="preserve" transform="matrix(1 0 -0 1 52.6948 518.13699)" font-size="20" font-family="Helvetica"><tspan y="0" x="0 10.002 20.004 24.448 35.572004 46.696004 56.698">science</tspan></text>
<text xml:space="preserve" transform="matrix(1 0 -0 1 175.271 119.754947)" font-size="20" font-family="Helvetica"><tspan y="0" x="0 14.444001 25.568003 32.230005 36.674009 47.798009 58.92201 70.046009 84.490009">worldnews</tspan></text>
<g style="mix-blend-mode:multiply">
<g clip-path="url(#clip_1)">
<path transform="matrix(1,0,0,-1,0,824.923)" d="M640.17 214.266C601.851 175.576 553.693 148.085 500.894 134.76 452.117 328.034 385.833 337.924 302.041 164.433L230.25 200.164 185.652 266.81C347.037 372.05 498.542 354.536 640.17 214.266Z" fill="#c7c7c7" fill-opacity=".8"/>
</g>
</g>
<g style="mix-blend-mode:multiply">
<g clip-path="url(#clip_2)">
<path transform="matrix(1,0,0,-1,0,824.923)" d="M493.262 716.4C527.992 708.598 561.051 694.658 590.88 675.235 482.113 508.192 522.806 409.166 712.961 378.156L709.637 325.027 678.836 281.61C511.431 376.984 449.573 521.914 493.262 716.4Z" fill="#ff7f0e" fill-opacity=".8"/>
</g>
</g>
<g style="mix-blend-mode:multiply">
<g clip-path="url(#clip_3)">
<path transform="matrix(1,0,0,-1,0,824.923)" d="M422.672 125.713C398.041 126.13 373.555 129.589 349.773 136.012 401.743 328.451 400.935 517.202 347.346 702.267L380.557 719.926 417.616 713.493C424.358 520.945 426.043 325.018 422.672 125.713Z" fill="#dbdb8d" fill-opacity=".8"/>
</g>
</g>
<g style="mix-blend-mode:multiply">
<g clip-path="url(#clip_4)">
<path transform="matrix(1,0,0,-1,0,824.923)" d="M705.448 535.455C713.607 515 719.482 493.707 722.965 471.962 526.141 440.434 335.112 451.17 149.878 504.169L151.072 538.081 174.025 563.074C343.161 470.805 520.302 461.599 705.448 535.455Z" fill="#2ca02c" fill-opacity=".8"/>
</g>
</g>
<g style="mix-blend-mode:multiply">
<g clip-path="url(#clip_5)">
<path transform="matrix(1,0,0,-1,0,824.923)" d="M591.714 674.69C607.056 664.627 621.438 653.175 634.68 640.476 496.713 496.605 331.797 433.462 139.935 451.045L133.741 479.19 149.615 503.242C335.024 450.861 482.391 508.01 591.714 674.69Z" fill="#ff7f0e" fill-opacity=".8"/>
</g>
</g>
<g style="mix-blend-mode:multiply">
<g clip-path="url(#clip_6)">
<path transform="matrix(1,0,0,-1,0,824.923)" d="M723.121 470.977C725.886 453.338 727.066 435.487 726.646 417.638 527.368 422.326 384.599 510.809 298.339 683.087L318.297 702.925 346.422 701.997C400.626 517.113 526.193 440.106 723.121 470.977Z" fill="#2ca02c" fill-opacity=".8"/>
</g>
</g>
<g style="mix-blend-mode:multiply">
<g clip-path="url(#clip_7)">
<path transform="matrix(1,0,0,-1,0,824.923)" d="M171.457 270.639C164.129 282.83 157.681 295.529 152.161 308.638 335.873 385.993 372.527 503.619 262.123 661.515L274.291 681.298 297.478 682.654C384.312 510.665 342.305 373.326 171.457 270.639Z" fill="#9467bd" fill-opacity=".8"/>
</g>
</g>
<g style="mix-blend-mode:multiply">
<g clip-path="url(#clip_8)">
<path transform="matrix(1,0,0,-1,0,824.923)" d="M499.927 134.518C488.644 131.71 477.207 129.563 465.674 128.088 440.377 325.809 333.162 406.307 144.028 369.582L131.388 384.879 139.545 402.968C331.667 417.436 451.795 327.953 499.927 134.518Z" fill="#c7c7c7" fill-opacity=".8"/>
</g>
</g>
<g style="mix-blend-mode:multiply">
<g clip-path="url(#clip_9)">
<path transform="matrix(1,0,0,-1,0,824.923)" d="M681.924 267.236C676.008 257.683 669.558 248.472 662.605 239.645 506.021 362.995 363.757 496.696 235.814 640.748L242.08 659.054 261.334 660.962C372.264 503.434 512.461 372.192 681.924 267.236Z" fill="#9edae5" fill-opacity=".8"/>
</g>
</g>
<g style="mix-blend-mode:multiply">
<g clip-path="url(#clip_10)">
<path transform="matrix(1,0,0,-1,0,824.923)" d="M635.398 639.785C643.469 631.993 651.095 623.754 658.24 615.105 504.566 488.148 355.86 488.818 212.121 617.114L216.21 636.002 235.095 640.107C363.517 496.483 496.952 496.375 635.398 639.785Z" fill="#ff7f0e" fill-opacity=".8"/>
</g>
</g>
<g style="mix-blend-mode:multiply">
<g clip-path="url(#clip_11)">
<path transform="matrix(1,0,0,-1,0,824.923)" d="M128.95 413.163C128.585 422.655 128.672 432.159 129.211 441.642 328.223 430.328 349.893 481.43 194.22 594.949L194.805 612.147 211.481 616.394C355.646 488.578 328.136 420.834 128.95 413.163Z" fill="#d62728" fill-opacity=".8"/>
</g>
</g>
<g style="mix-blend-mode:multiply">
<g clip-path="url(#clip_12)">
<path transform="matrix(1,0,0,-1,0,824.923)" d="M428.227 723.67C437.587 723.654 446.942 723.199 456.26 722.306 437.239 523.882 523.862 418.469 716.129 406.066L724.876 391.44 713.114 379.107C522.857 409.483 427.895 524.337 428.227 723.67Z" fill="#1f77b4" fill-opacity=".8"/>
</g>
</g>
<g style="mix-blend-mode:multiply">
<g clip-path="url(#clip_13)">
<path transform="matrix(1,0,0,-1,0,824.923)" d="M348.811 136.273C340.394 138.576 332.082 141.247 323.899 144.277 393.119 331.206 335.218 397.802 150.197 344.064L137.22 353.919 144.213 368.637C333.223 405.992 401.423 328.538 348.811 136.273Z" fill="#dbdb8d" fill-opacity=".8"/>
</g>
</g>
<g style="mix-blend-mode:multiply">
<g clip-path="url(#clip_14)">
<path transform="matrix(1,0,0,-1,0,824.923)" d="M457.252 722.209C464.121 721.528 470.965 720.608 477.77 719.453 444.409 522.931 503.468 484.199 654.947 603.256L669.065 601.186 666.76 587.105C507.406 478.815 437.57 523.85 457.252 722.209Z" fill="#1f77b4" fill-opacity=".8"/>
</g>
</g>
<g style="mix-blend-mode:multiply">
<g clip-path="url(#clip_15)">
<path transform="matrix(1,0,0,-1,0,824.923)" d="M464.685 127.963C459.659 127.337 454.618 126.839 449.566 126.469 435.008 325.27 346.935 477.134 185.346 582.061L181.177 593.825 193.654 594.17C349.704 481.17 440.048 325.768 464.685 127.963Z" fill="#c7c7c7" fill-opacity=".8"/>
</g>
</g>
<g style="mix-blend-mode:multiply">
<g clip-path="url(#clip_16)">
<path transform="matrix(1,0,0,-1,0,824.923)" d="M681.026 583.547C683.715 579.259 686.295 574.903 688.764 570.484 514.74 473.275 390.586 335.785 316.301 158.015L305.478 151.804 302.909 164.015C386.122 337.785 512.161 477.629 681.026 583.547Z" fill="#f7b6d2" fill-opacity=".8"/>
</g>
</g>
<g style="mix-blend-mode:multiply">
<g clip-path="url(#clip_17)">
<path transform="matrix(1,0,0,-1,0,824.923)" d="M689.248 569.613C691.665 565.253 693.972 560.833 696.167 556.358 517.208 468.566 434.444 328.571 447.875 136.373L441.107 125.97 433.437 135.727C429.631 328.356 514.902 472.985 689.248 569.613Z" fill="#f7b6d2" fill-opacity=".8"/>
</g>
</g>
<g style="mix-blend-mode:multiply">
<g clip-path="url(#clip_18)">
<path transform="matrix(1,0,0,-1,0,824.923)" d="M696.605 555.463C698.197 552.19 699.728 548.889 701.2 545.561 518.886 464.967 344.909 473.874 179.27 572.282L173.503 582.056 184.823 581.252C346.76 476.864 517.354 468.268 696.605 555.463Z" fill="#f7b6d2" fill-opacity=".8"/>
</g>
</g>
<g style="mix-blend-mode:multiply">
<g clip-path="url(#clip_19)">
<path transform="matrix(1,0,0,-1,0,824.923)" d="M661.987 238.863C659.787 236.091 657.539 233.357 655.243 230.664 503.567 360.002 336.331 394.23 153.537 333.348L142.416 335.239 150.468 343.139C335.308 397.493 505.815 362.735 661.987 238.863Z" fill="#9edae5" fill-opacity=".8"/>
</g>
</g>
<g style="mix-blend-mode:multiply">
<g clip-path="url(#clip_20)">
<path transform="matrix(1,0,0,-1,0,824.923)" d="M654.595 229.907C652.355 227.297 650.069 224.726 647.74 222.196 501.066 357.179 393.976 334.444 326.469 153.991L318.149 146.474 317.19 157.645C390.883 335.662 503.351 359.749 654.595 229.907Z" fill="#9edae5" fill-opacity=".8"/>
</g>
</g>
<g style="mix-blend-mode:multiply">
<g clip-path="url(#clip_21)">
<path transform="matrix(1,0,0,-1,0,824.923)" d="M726.621 416.642C726.529 413.231 726.379 409.823 726.171 406.417 527.21 418.586 337.539 390.819 157.16 323.116L146.04 324.408 153.843 332.435C336.433 393.925 527.359 421.994 726.621 416.642Z" fill="#2ca02c" fill-opacity=".8"/>
</g>
</g>
<g style="mix-blend-mode:multiply">
<g clip-path="url(#clip_22)">
<path transform="matrix(1,0,0,-1,0,824.923)" d="M658.874 614.335C659.992 612.973 661.098 611.6 662.192 610.218 505.883 486.52 338.27 388.931 159.354 317.452L149.097 316.201 157.5 322.214C337.652 390.518 504.777 487.892 658.874 614.335Z" fill="#ff7f0e" fill-opacity=".8"/>
</g>
</g>
<g style="mix-blend-mode:multiply">
<g clip-path="url(#clip_23)">
<path transform="matrix(1,0,0,-1,0,824.923)" d="M478.753 719.284C480.011 719.067 481.268 718.841 482.524 718.606 445.994 522.649 331.668 431.912 139.546 446.395L129.725 449.056 139.848 450.086C331.769 433.142 444.737 522.875 478.753 719.284Z" fill="#1f77b4" fill-opacity=".8"/>
</g>
</g>
<g style="mix-blend-mode:multiply">
<g clip-path="url(#clip_24)">
<path transform="matrix(1,0,0,-1,0,824.923)" d="M151.776 309.557C151.324 310.641 150.878 311.728 150.439 312.817 335.299 387.386 331.569 430.459 139.251 442.036L129.38 444.395 139.476 445.434C331.644 431.592 335.744 386.299 151.776 309.557Z" fill="#9467bd" fill-opacity=".8"/>
</g>
</g>
<text xml:space="preserve" transform="matrix(1 0 -0 1 18.9455 343.03599)" font-size="20" font-family="ArialMT"><tspan y="0" x="0 5.556 16.68 26.68 37.804006 48.928007 60.052007 64.496 75.62 86.744">technology</tspan></text>
</g>
</g>
</svg>
