<?xml version="1.0" encoding="UTF-8" standalone="no"?>
<!DOCTYPE svg PUBLIC "-//W3C//DTD SVG 1.1//EN" "http://www.w3.org/Graphics/SVG/1.1/DTD/svg11.dtd">
<svg width="100%" height="100%" viewBox="0 0 33 35" version="1.1" xmlns="http://www.w3.org/2000/svg" xmlns:xlink="http://www.w3.org/1999/xlink" xml:space="preserve" xmlns:serif="http://www.serif.com/" style="fill-rule:evenodd;clip-rule:evenodd;stroke-linejoin:round;stroke-miterlimit:2;">
    <g id="Artboard1" transform="matrix(0.906532,0,0,0.903459,1.10047,3.03522)">
        <rect x="-1.214" y="-3.36" width="35.354" height="38.099" style="fill:none;"/>
        <g id="Symbols" transform="matrix(1.109,0,0,1.11278,-0.767751,-2.52651)">
            <g id="DESKTOP_menu_notif_final">
                <g id="MENU">
                    <g id="logo">
                        <path id="Fill-1" d="M15.2,0.4C18,0.3 21.3,0.9 21.9,2.8C22.9,6 17.8,10.7 13.4,13C12.3,13.6 11.7,13.7 11.4,13.7C11.1,13.7 11.1,13.4 11.2,13.2C11.4,12.9 12.1,12.2 13,11.4C18,7.5 19.6,4.6 18.7,3.5C18.1,2.8 15.6,2.2 12.9,2.2C12.2,2.2 10.3,2.4 10.1,1.7C10,1.2 12.5,0.5 15.2,0.4" style="fill:rgb(0,83,134);"/>
                        <path id="Fill-3" d="M9.4,15.2C11.8,15.1 14.7,15.5 16.3,16.7C17.1,17.3 17.7,18.5 17.3,19.8C16.4,23.5 12.9,28 5.1,31.4C2.6,32.5 0.7,32.9 0.3,32.6C-0.1,32.3 1.1,29.8 1.5,29C2.7,26.4 4.3,23.8 5.8,21.5C6.4,20.6 7.2,19.1 8,19.3C8.7,19.4 7.9,21 7.3,22C6.4,23.7 3.9,28.4 4.7,28.7C6.5,29.3 15,22.8 13.8,19.2C13.2,17.5 9.5,17.4 7.2,17.4C6.1,17.4 3.8,17.7 3.7,16.8C3.6,16.1 7.2,15.3 9.4,15.2" style="fill:rgb(0,83,134);"/>
                        <path id="Fill-5" d="M27.8,11.2C29.2,11.5 30.4,11.7 30.7,12.3C31,13 29.4,13 28.7,13C24.9,13.1 22.7,13.1 22.5,14.4C22.4,16 24.1,17.7 25.8,20C27.4,22.1 29.2,24.2 28.7,26.2C28.1,28.6 25.1,29.2 22.2,29.2C19.5,29.2 16.9,28.8 15.8,28.6C14.4,28.3 14.7,27.7 15,27.5C15.4,27.3 17.7,27.3 19.3,27.2C20.6,27 24.4,27 25,26C25.7,24.8 23.9,22.8 22.3,20.6C20.3,17.9 18,15.2 19.2,13.1C20.8,10.6 25.3,10.7 27.8,11.2" style="fill:rgb(0,83,134);"/>
                    </g>
                </g>
            </g>
        </g>
    </g>
</svg>
