<?xml version="1.0" encoding="UTF-8" standalone="no"?>
<!DOCTYPE svg PUBLIC "-//W3C//DTD SVG 1.1//EN" "http://www.w3.org/Graphics/SVG/1.1/DTD/svg11.dtd">
<svg width="100%" height="100%" viewBox="0 0 325 241" version="1.1" xmlns="http://www.w3.org/2000/svg" xmlns:xlink="http://www.w3.org/1999/xlink" xml:space="preserve" xmlns:serif="http://www.serif.com/" style="fill-rule:evenodd;clip-rule:evenodd;stroke-linejoin:round;stroke-miterlimit:2;">
    <g id="Artboard1" transform="matrix(1.00541,0,0,1.03065,-502.95,-762.986)">
        <rect x="500.244" y="740.293" width="322.818" height="233.116" style="fill:none;"/>
        <g transform="matrix(0.665608,0,0,0.649305,507.25,867.619)">
            <text x="0px" y="0px" style="font-family:'Zapfino', cursive;font-style:italic;font-size:163.788px;fill:rgb(99,25,126);">M</text>
            <path d="M291.391,-165.471C290.415,-165.222 289.054,-164.259 287.247,-162.679C282.076,-158.051 276.02,-152.131 269.08,-144.919C262.127,-137.693 254.764,-129.717 246.993,-120.991C239.22,-112.263 231.242,-102.99 223.059,-93.171C214.873,-83.347 206.824,-73.524 198.91,-63.701C191,-53.882 183.5,-44.267 176.408,-34.857C169.335,-25.472 163.077,-16.833 157.634,-8.944C157.089,-7.856 156.41,-6.568 155.599,-5.081C154.811,-3.635 154.156,-1.992 153.63,-0.153C153.52,0.231 153.179,0.502 152.781,0.523C147.752,0.788 143.976,1.496 141.462,2.687C138.941,3.881 136.356,5.676 133.702,8.065C133.607,8.151 133.495,8.216 133.373,8.256C132.065,8.692 131.081,8.642 130.427,8.293C129.879,8.001 129.488,7.508 129.305,6.778C129.276,6.661 129.27,6.539 129.287,6.419C130.104,0.697 130.99,-6.934 131.943,-16.472C132.898,-26.021 133.853,-36.526 134.808,-47.985C135.763,-59.446 136.65,-71.247 137.469,-83.39C138.288,-95.54 139.107,-107.008 139.926,-117.793C140.745,-128.573 141.427,-138.056 141.973,-146.243C142.517,-154.408 142.926,-160.268 143.199,-163.833C143.197,-164.744 143.126,-165.475 142.972,-166.025C142.879,-166.356 142.794,-166.608 142.608,-166.719C142.502,-166.782 142.373,-166.741 142.22,-166.69C141.986,-166.614 141.73,-166.474 141.447,-166.282C140.58,-165.694 139.535,-164.657 138.296,-163.186C138.292,-163.181 138.287,-163.176 138.283,-163.171C130.376,-154.173 121.037,-142.857 110.266,-129.223C99.489,-115.581 88.644,-101.394 77.731,-86.661C66.819,-71.93 56.521,-57.472 46.837,-43.287C37.166,-29.121 29.47,-16.863 23.749,-6.512C18.897,2.384 15.985,9.118 15.041,13.701C14.109,18.231 13.767,21.962 14.033,24.893C14.178,26.487 14.166,27.637 14.027,28.343C13.935,28.811 13.776,29.143 13.603,29.359C13.365,29.656 13.077,29.81 12.76,29.859C12.497,29.901 12.195,29.867 11.866,29.703C10.925,29.232 9.933,28.097 8.992,26.214C8.143,24.517 7.424,21.974 6.859,18.58C6.315,15.319 5.364,10.836 4.005,5.13C3.969,4.978 3.971,4.819 4.013,4.668C4.844,1.62 8.146,-4.28 13.964,-13.007C19.705,-21.618 26.949,-31.733 35.697,-43.351C44.435,-54.957 54.129,-67.586 64.779,-81.24C75.427,-94.892 85.939,-108.203 96.315,-121.172C106.69,-134.141 116.451,-146.223 125.598,-157.418C134.746,-168.614 142.188,-177.625 147.922,-184.452C148.033,-184.584 148.178,-184.683 148.342,-184.738C154.089,-186.653 158.604,-188.09 161.888,-189.048C165.119,-189.99 167.677,-190.863 169.562,-191.671C169.772,-191.761 170.008,-191.771 170.225,-191.699C171.429,-191.297 172.048,-190.686 172.249,-190.084C172.47,-189.419 172.296,-188.582 171.409,-187.695C171.366,-187.652 171.318,-187.613 171.267,-187.579C168.202,-185.536 166.293,-182.595 165.523,-178.756C164.434,-172.494 163.346,-165.009 162.258,-156.301C161.167,-147.574 160.144,-138.301 159.189,-128.483C158.234,-118.661 157.348,-108.567 156.529,-98.199C155.711,-87.832 155.029,-78.011 154.483,-68.736C153.938,-59.463 153.529,-50.939 153.256,-43.166C152.983,-35.4 152.847,-29.201 152.847,-24.568C152.847,-22.022 153.004,-20.299 153.386,-19.408C153.472,-19.206 153.564,-19.036 153.668,-18.903C153.761,-18.785 153.853,-18.702 153.982,-18.728C154.516,-18.835 155.067,-19.31 155.708,-20.058C156.514,-20.998 157.321,-22.006 158.127,-23.081C158.131,-23.087 158.135,-23.092 158.14,-23.098C161.145,-26.923 166.062,-33.001 172.893,-41.334C179.718,-49.662 187.5,-59.081 196.236,-69.593C204.975,-80.106 214.259,-91.097 224.089,-102.566C233.919,-114.034 243.34,-124.888 252.351,-135.128C261.361,-145.367 269.485,-154.514 276.721,-162.569C283.981,-170.652 289.394,-176.336 292.956,-179.624C293.02,-179.684 293.093,-179.734 293.172,-179.773C297.579,-181.977 302.951,-184.045 309.287,-185.973C315.468,-187.855 320.442,-189.999 324.204,-192.417C324.355,-192.514 324.53,-192.565 324.709,-192.565C325.817,-192.565 326.747,-192.115 327.486,-191.191C328.299,-190.175 328.346,-189.057 327.533,-187.838C327.43,-187.683 327.284,-187.563 327.112,-187.492C322.548,-185.613 319.256,-184.007 317.242,-182.665C315.327,-181.388 313.769,-178.937 312.491,-175.364C309.222,-165.011 305.886,-152.956 302.481,-139.2C299.072,-125.428 295.936,-111.316 293.072,-96.863C290.21,-82.413 287.824,-68.304 285.916,-54.536C284.011,-40.799 283.058,-28.763 283.058,-18.426C283.058,-14.959 283.779,-12.517 285.389,-11.154C286.994,-9.796 288.91,-9.123 291.132,-9.123C293.539,-9.123 296.213,-9.392 299.155,-9.927C302.08,-10.459 304.739,-11.255 307.132,-12.319C307.251,-12.372 307.381,-12.399 307.511,-12.399C307.944,-12.399 308.308,-12.278 308.611,-12.061C309.001,-11.783 309.311,-11.321 309.451,-10.625C309.649,-9.633 309.375,-8.732 308.581,-7.938C308.472,-7.829 308.337,-7.749 308.189,-7.704C305.458,-6.885 302.25,-5.929 298.564,-4.837L287.508,-1.561C283.825,-0.47 280.415,0.553 277.278,1.508C274.121,2.469 271.444,3.223 269.248,3.772C269.174,3.791 269.098,3.8 269.021,3.8C265.546,3.8 262.728,3.128 260.556,1.825C258.304,0.473 256.826,-1.975 256.225,-5.579C256.213,-5.652 256.21,-5.726 256.215,-5.799C256.49,-9.642 257.448,-15.956 259.095,-24.74C260.735,-33.485 262.784,-43.324 265.244,-54.255C267.701,-65.178 270.364,-76.647 273.231,-88.662C276.097,-100.674 278.759,-111.798 281.216,-122.035C283.674,-132.275 285.79,-140.945 287.565,-148.045C289.333,-155.118 290.354,-159.335 290.626,-160.695C290.63,-160.714 290.634,-160.733 290.64,-160.753C291.157,-162.693 291.427,-164.129 291.427,-165.067C291.427,-165.203 291.409,-165.353 291.391,-165.471ZM12.248,27.721C12.321,27.141 12.281,26.254 12.173,25.062C11.893,21.988 12.234,18.075 13.212,13.324C14.179,8.626 17.136,1.711 22.11,-7.408L22.113,-7.413C27.857,-17.807 35.584,-30.116 45.294,-44.34C54.991,-58.544 65.303,-73.022 76.23,-87.773C87.155,-102.522 98.012,-116.724 108.8,-130.381C119.592,-144.041 128.95,-155.38 136.874,-164.397C138.551,-166.388 139.945,-167.643 141.019,-168.201C142.059,-168.742 142.912,-168.711 143.562,-168.325C143.993,-168.069 144.367,-167.63 144.626,-166.964C144.908,-166.239 145.067,-165.182 145.067,-163.788C145.067,-163.764 145.066,-163.74 145.064,-163.716C144.791,-160.169 144.382,-154.303 143.837,-146.118C143.29,-137.926 142.608,-128.438 141.789,-117.652C140.97,-106.871 140.151,-95.409 139.332,-83.264C138.513,-71.111 137.626,-59.3 136.67,-47.83C135.714,-36.36 134.758,-25.845 133.802,-16.286C132.856,-6.83 131.977,0.758 131.166,6.478C131.192,6.541 131.227,6.593 131.279,6.629C131.396,6.709 131.555,6.716 131.746,6.708C131.997,6.697 132.282,6.639 132.602,6.542C135.356,4.084 138.044,2.239 140.662,0.999C143.223,-0.215 147.008,-0.994 152.023,-1.304C152.556,-3.03 153.202,-4.587 153.959,-5.975C154.772,-7.465 155.449,-8.752 155.991,-9.835C156.011,-9.874 156.033,-9.912 156.058,-9.948C161.524,-17.874 167.81,-26.552 174.916,-35.981C182.02,-45.407 189.533,-55.037 197.456,-64.873C205.375,-74.704 213.432,-84.535 221.624,-94.366C229.82,-104.202 237.812,-113.491 245.598,-122.233C253.387,-130.978 260.765,-138.972 267.734,-146.214C274.714,-153.468 280.805,-159.421 286.006,-164.074C286.008,-164.076 286.011,-164.079 286.013,-164.081C288.402,-166.171 290.232,-167.227 291.426,-167.376C291.837,-167.427 292.182,-167.338 292.47,-167.15C292.91,-166.863 293.295,-166.207 293.295,-165.067C293.295,-164.03 293.021,-162.44 292.454,-160.312C292.175,-158.924 291.15,-154.684 289.377,-147.592C287.603,-140.497 285.488,-131.832 283.032,-121.599C280.576,-111.363 277.914,-100.239 275.048,-88.229C272.183,-76.222 269.522,-64.76 267.066,-53.845C264.612,-42.938 262.567,-33.122 260.931,-24.396C259.318,-15.794 258.368,-9.588 258.087,-5.773C258.588,-2.886 259.698,-0.868 261.517,0.223C263.416,1.362 265.882,1.918 268.91,1.931C271.06,1.391 273.668,0.654 276.734,-0.279C279.875,-1.235 283.29,-2.26 286.977,-3.352L298.033,-6.628C301.605,-7.686 304.727,-8.616 307.402,-9.419C307.6,-9.674 307.681,-9.951 307.619,-10.258C307.604,-10.334 307.586,-10.403 307.561,-10.463C307.561,-10.464 307.56,-10.466 307.56,-10.467C305.126,-9.419 302.436,-8.625 299.489,-8.089C296.425,-7.532 293.639,-7.255 291.132,-7.255C288.441,-7.255 286.126,-8.084 284.182,-9.729C282.243,-11.369 281.19,-14.25 281.19,-18.426C281.19,-28.836 282.148,-40.958 284.065,-54.792C285.979,-68.595 288.37,-82.74 291.24,-97.226C294.109,-111.708 297.252,-125.849 300.667,-139.649C304.085,-153.456 307.434,-165.554 310.715,-175.943C310.719,-175.954 310.723,-175.965 310.726,-175.976C312.177,-180.038 314.03,-182.769 316.206,-184.219C318.244,-185.578 321.543,-187.208 326.108,-189.1C326.265,-189.431 326.255,-189.739 326.027,-190.024C325.73,-190.395 325.375,-190.618 324.955,-190.681C321.106,-188.253 316.066,-186.084 309.831,-184.187C303.666,-182.31 298.431,-180.303 294.122,-178.159C290.586,-174.882 285.249,-169.268 278.11,-161.321C270.878,-153.27 262.759,-144.128 253.753,-133.894C244.747,-123.66 235.332,-112.812 225.508,-101.35C215.684,-89.889 206.405,-78.905 197.673,-68.399C188.939,-57.891 181.16,-48.475 174.337,-40.15C167.523,-31.837 162.615,-25.77 159.621,-21.96C158.789,-20.851 157.958,-19.812 157.126,-18.842C156.129,-17.678 155.179,-17.062 154.348,-16.896C153.277,-16.682 152.312,-17.172 151.669,-18.672C151.232,-19.692 150.979,-21.655 150.979,-24.568C150.979,-29.217 151.116,-35.438 151.389,-43.232C151.662,-51.018 152.072,-59.556 152.619,-68.846C153.165,-78.133 153.848,-87.966 154.667,-98.346C155.487,-108.725 156.374,-118.831 157.33,-128.664C158.287,-138.5 159.311,-147.79 160.404,-156.533C161.498,-165.286 162.592,-172.807 163.686,-179.098C163.688,-179.106 163.689,-179.113 163.691,-179.121C164.555,-183.442 166.712,-186.757 170.152,-189.081C170.246,-189.181 170.325,-189.276 170.386,-189.369C170.413,-189.411 170.441,-189.47 170.457,-189.505C170.428,-189.533 170.381,-189.577 170.343,-189.603C170.236,-189.677 170.105,-189.745 169.953,-189.809C168.053,-189.019 165.539,-188.167 162.411,-187.254C159.191,-186.315 154.782,-184.913 149.183,-183.049C143.475,-176.252 136.096,-167.314 127.044,-156.236C117.902,-145.046 108.145,-132.969 97.773,-120.005C87.403,-107.042 76.895,-93.737 66.251,-80.091C55.609,-66.447 45.921,-53.826 37.189,-42.228C28.466,-30.643 21.242,-20.557 15.518,-11.971C10.011,-3.71 6.784,1.917 5.879,4.935C7.22,10.581 8.16,15.027 8.701,18.273C9.227,21.429 9.873,23.8 10.663,25.379C11.206,26.465 11.718,27.259 12.248,27.721Z" style="fill:rgb(213,150,237);"/>
        </g>
        <g transform="matrix(0.994619,0,0,0.970257,666.505,966.201)">
            <g transform="matrix(109.608,0,0,109.608,115.363,0)">
            </g>
            <text x="0px" y="0px" style="font-family:'Zapfino', cursive;font-style:italic;font-size:109.608px;fill:rgb(213,150,237);stroke:black;stroke-width:1.04px;">P</text>
        </g>
        <g transform="matrix(0.994619,0,0,0.970257,666.505,966.201)">
            <g transform="matrix(109.608,0,0,109.608,115.363,0)">
            </g>
            <text x="0px" y="0px" style="font-family:'Zapfino', cursive;font-style:italic;font-size:109.608px;fill:rgb(99,25,126);">P</text>
            <path d="M150.514,-98.373C150.514,-93.718 149.081,-88.641 146.195,-83.149C143.33,-77.696 139.221,-72.612 133.861,-67.899C128.513,-63.196 122.014,-59.321 114.36,-56.278C106.711,-53.237 98.003,-51.713 88.235,-51.713C83.586,-51.713 79.495,-52.368 75.962,-53.67C75.916,-53.687 75.872,-53.709 75.831,-53.736C75.049,-54.257 74.731,-54.831 74.731,-55.352C74.731,-55.919 74.904,-56.333 75.188,-56.616C75.471,-56.9 75.885,-57.073 76.452,-57.073C76.531,-57.073 76.61,-57.058 76.684,-57.029C77.572,-56.673 79.216,-56.326 81.613,-55.97C84.047,-55.61 86.345,-55.429 88.509,-55.429C95.356,-55.429 101.709,-56.779 107.565,-59.482C113.431,-62.189 118.485,-65.707 122.726,-70.038C126.966,-74.369 130.305,-79.241 132.741,-84.655C135.169,-90.05 136.385,-95.444 136.385,-100.84C136.385,-108.235 134.196,-113.279 129.706,-115.92C125.136,-118.608 119.623,-119.944 113.17,-119.944C108.667,-119.944 104.612,-119.496 100.997,-118.593C98.792,-117.908 97.099,-116.454 95.909,-114.244C95.905,-114.237 95.901,-114.229 95.897,-114.222C92.426,-108.376 88.269,-101.388 83.428,-93.258C78.589,-85.132 73.705,-76.733 68.774,-68.059C63.843,-59.384 59.094,-50.937 54.528,-42.718C49.966,-34.505 46.133,-27.388 43.031,-21.365C41.078,-17.459 40.084,-14.269 40.084,-11.783C40.084,-8.586 41.417,-6.349 44.109,-5.087C46.972,-3.745 51.27,-3.091 56.996,-3.091C58.579,-3.091 59.6,-2.893 60.075,-2.591C60.473,-2.337 60.635,-2.006 60.635,-1.644C60.635,-0.852 60.083,-0.199 58.763,0.065C58.756,0.066 58.75,0.067 58.743,0.068C55.441,0.619 51.726,1.078 47.598,1.445C43.469,1.812 39.386,1.995 35.349,1.995C34.602,1.995 33.436,1.903 31.85,1.717C30.259,1.53 28.714,1.202 27.216,0.734C25.682,0.254 24.341,-0.418 23.191,-1.281C21.933,-2.224 21.297,-3.53 21.297,-5.206C21.297,-6.355 21.758,-8.082 22.715,-10.379C22.717,-10.385 22.72,-10.39 22.722,-10.396C25.288,-16.077 28.677,-22.491 32.892,-29.638C37.094,-36.763 41.114,-43.523 44.951,-49.918C49.515,-57.587 54.445,-66.122 59.74,-75.525C65.035,-84.929 69.692,-93.374 73.709,-100.861C73.718,-100.879 73.728,-100.896 73.74,-100.912C74.095,-101.446 74.626,-102.471 75.338,-103.983C76.067,-105.532 76.796,-107.126 77.525,-108.766C78.25,-110.398 78.885,-111.939 79.429,-113.39C79.938,-114.747 80.211,-115.676 80.211,-116.185C80.211,-116.308 80.198,-116.412 80.137,-116.486C80.013,-116.634 79.782,-116.655 79.475,-116.656C73.654,-116.474 67.969,-116.019 62.421,-115.291C56.823,-114.557 51.087,-114.19 45.213,-114.19C41.248,-114.19 39.382,-115.533 39.382,-117.829C39.382,-118.223 39.698,-119.268 40.388,-120.944C40.81,-121.97 41.226,-122.681 41.613,-123.091C41.996,-123.498 42.388,-123.66 42.747,-123.66C43.313,-123.66 43.893,-123.223 44.176,-122.091C44.178,-122.081 44.18,-122.071 44.182,-122.062C44.243,-121.76 44.481,-121.526 44.843,-121.314C45.343,-121.023 46.053,-120.802 46.969,-120.636C46.977,-120.634 46.985,-120.633 46.993,-120.631C48.607,-120.273 50.579,-120.05 52.91,-119.96C55.277,-119.869 57.552,-119.824 59.736,-119.824C65.204,-119.824 70.762,-120.006 76.411,-120.371C82.065,-120.735 87.399,-121.191 92.414,-121.738C97.442,-122.287 101.921,-122.744 105.851,-123.109C109.803,-123.477 112.883,-123.66 115.089,-123.66C119.144,-123.66 123.245,-123.292 127.392,-122.554C131.575,-121.811 135.386,-120.462 138.826,-118.509C142.294,-116.541 145.105,-113.917 147.26,-110.637C149.422,-107.347 150.514,-103.261 150.514,-98.373ZM59.365,-1.55C59.298,-1.583 59.19,-1.631 59.092,-1.658C58.627,-1.785 57.928,-1.841 56.996,-1.841C51.031,-1.841 46.56,-2.557 43.578,-3.955C40.424,-5.434 38.834,-8.038 38.834,-11.783C38.834,-14.411 39.849,-17.796 41.914,-21.927C41.915,-21.929 41.916,-21.932 41.918,-21.934C45.026,-27.967 48.865,-35.097 53.436,-43.325C58.004,-51.547 62.754,-59.998 67.688,-68.677C72.622,-77.358 77.511,-85.765 82.354,-93.898C87.192,-102.022 91.346,-109.006 94.812,-114.842C96.175,-117.371 98.126,-119.018 100.656,-119.796C100.666,-119.8 100.677,-119.803 100.688,-119.805C104.387,-120.73 108.547,-121.194 113.17,-121.194C119.871,-121.194 125.593,-119.79 130.34,-116.997C135.166,-114.158 137.635,-108.789 137.635,-100.84C137.635,-95.274 136.386,-89.708 133.881,-84.142C131.385,-78.595 127.964,-73.602 123.619,-69.164C119.274,-64.727 114.098,-61.12 108.089,-58.347C102.071,-55.57 95.545,-54.179 88.509,-54.179C86.288,-54.179 83.928,-54.364 81.43,-54.734C78.998,-55.094 77.302,-55.461 76.34,-55.821C76.226,-55.815 76.134,-55.795 76.072,-55.732C75.989,-55.65 75.981,-55.517 75.981,-55.352C75.981,-55.268 76.041,-55.196 76.116,-55.113C76.205,-55.013 76.322,-54.916 76.469,-54.815C79.86,-53.578 83.783,-52.963 88.235,-52.963C97.83,-52.963 106.385,-54.453 113.899,-57.44C121.408,-60.426 127.788,-64.223 133.035,-68.837C138.271,-73.441 142.29,-78.404 145.089,-83.73C147.866,-89.015 149.264,-93.894 149.264,-98.373C149.264,-102.985 148.255,-106.846 146.216,-109.95C144.17,-113.064 141.5,-115.554 138.209,-117.422C134.889,-119.306 131.21,-120.606 127.173,-121.324C123.1,-122.048 119.072,-122.41 115.089,-122.41C112.91,-122.41 109.87,-122.228 105.967,-121.865C102.042,-121.5 97.57,-121.043 92.55,-120.496C87.517,-119.947 82.165,-119.489 76.492,-119.123C70.815,-118.757 65.23,-118.574 59.736,-118.574C57.537,-118.574 55.245,-118.62 52.862,-118.711C50.449,-118.804 48.406,-119.038 46.741,-119.407C45.413,-119.649 44.453,-120.018 43.849,-120.477C43.351,-120.855 43.064,-121.302 42.96,-121.799L42.956,-121.814C42.902,-122.026 42.841,-122.197 42.766,-122.326C42.752,-122.35 42.729,-122.38 42.712,-122.401C42.687,-122.388 42.664,-122.363 42.635,-122.34C42.553,-122.274 42.472,-122.184 42.387,-122.073C42.115,-121.717 41.837,-121.18 41.544,-120.468C40.955,-119.038 40.632,-118.165 40.632,-117.829C40.632,-116.894 41.137,-116.254 42.106,-115.88C42.883,-115.58 43.919,-115.44 45.213,-115.44C51.031,-115.44 56.713,-115.803 62.258,-116.53C67.85,-117.264 73.58,-117.722 79.446,-117.905C79.453,-117.906 79.459,-117.906 79.466,-117.906C80.252,-117.906 80.783,-117.664 81.097,-117.286C81.328,-117.009 81.461,-116.646 81.461,-116.185C81.461,-115.598 81.186,-114.516 80.599,-112.951C80.047,-111.479 79.403,-109.915 78.667,-108.258C77.934,-106.61 77.202,-105.007 76.469,-103.451C75.731,-101.881 75.171,-100.814 74.797,-100.244C70.779,-92.758 66.123,-84.313 60.829,-74.912C55.529,-65.499 50.594,-56.955 46.024,-49.278L46.023,-49.276C42.188,-42.884 38.17,-36.126 33.969,-29.003C29.782,-21.904 26.414,-15.533 23.862,-9.883C22.997,-7.803 22.547,-6.248 22.547,-5.206C22.547,-3.96 23.006,-2.982 23.941,-2.281C24.983,-1.5 26.199,-0.894 27.588,-0.46C29.013,-0.014 30.483,0.297 31.996,0.475C33.516,0.654 34.633,0.745 35.349,0.745C39.349,0.745 43.396,0.563 47.487,0.2C51.576,-0.164 55.256,-0.618 58.535,-1.164C58.808,-1.22 59.03,-1.292 59.196,-1.391C59.273,-1.437 59.334,-1.487 59.365,-1.55Z" style="fill:rgb(213,150,237);"/>
        </g>
    </g>
</svg>
