<?xml version="1.0" encoding="UTF-8"?>
<svg id="Layer_1" data-name="Layer 1" xmlns="http://www.w3.org/2000/svg" viewBox="0 0 1662.83 1040.99">
  <defs>
    <style>
      .cls-1 {
        letter-spacing: -.02em;
      }

      .cls-2 {
        letter-spacing: .03em;
      }

      .cls-3 {
        letter-spacing: 0em;
      }

      .cls-4 {
        fill-rule: evenodd;
        stroke-width: 0px;
      }

      .cls-4, .cls-5 {
        fill: #eb6864;
      }

      .cls-5 {
        font-family: Arial-Black, 'Arial Black';
        font-size: 104.19px;
        font-weight: 800;
      }

      .cls-6 {
        letter-spacing: .03em;
      }
    </style>
  </defs>
  <path class="cls-4" d="m1085.94,210.38l28.23-2.91c4.18-.45,8.07-2.46,11.01-5.7l33.82-37.21c4.9-5.39,12.21-7.19,18.89-4.67,6.68,2.53,11.58,8.96,12.65,16.6,6.35,44.48-10.05,88.59-42.65,114.68-32.6,26.09-76.06,29.91-113.01,9.92l-222.22,244.44c-14.65,16.11-38.39,16.11-53.04,0-14.65-16.11-14.65-42.23,0-58.35l222.24-244.47c-18.14-40.64-14.66-88.44,9.05-124.29,23.71-35.85,63.79-53.9,104.22-46.94,6.95,1.18,12.8,6.57,15.09,13.92,2.3,7.35.66,15.39-4.24,20.78l-33.62,36.98c-3.08,3.4-4.92,7.93-5.2,12.77l-1.92,32.36c-.35,6.03,1.75,11.98,5.75,16.25s9.47,6.4,14.93,5.82Zm-529.56-9.01l146.49-125.57c4.76-4.08,6.98-5.03,9.66-5.53,2.67-.5,5.41-.22,8.09.84,2.68,1.05,4.9,2.47,9.68,7.54l122.53,130.01c4.78,5.07,6.01,7.33,6.83,9.98.82,2.65.82,5.27.01,7.76-.81,2.48-2.04,4.49-6.8,8.57l-143.06,122.63c-4.75,4.07-6.97,5.02-9.64,5.53-2.67.5-5.4.22-8.07-.82-2.67-1.05-4.9-2.45-9.68-7.5l-125.97-132.86c-5.94-6.26-5.98-15.45-.11-20.53.01-.01.02-.02.04-.03Zm192.22-164.76L791.31,0l150,159.16-39.57,33.92c-4.76,4.08-6.98,5.03-9.65,5.53-2.67.5-5.41.22-8.08-.83-2.68-1.05-4.9-2.46-9.68-7.52l-125.68-133.1c-5.92-6.27-5.95-15.46-.06-20.52,0,0,0,0,.01,0Zm-234.93,201.38l-42.72,36.61,150,159.16,39.57-33.92c4.76-4.08,5.99-6.08,6.79-8.56.81-2.48.8-5.1,0-7.75-.81-2.65-2.05-4.91-6.81-9.98l-125.42-133.33c-5.91-6.28-15.49-7.28-21.39-2.24,0,0,0,0-.01,0Zm272.88,94.93l32.04-27.46c5.9-5.06,15.48-4.06,21.39,2.21l176.78,187.58c14.79,15.7,14.83,38.67.09,51.3h0c-14.74,12.64-38.69,10.16-53.48-5.54l-176.78-187.58c-5.92-6.28-5.93-15.47-.04-20.52Z"/>
  <text class="cls-5" transform="translate(262.19 758.99) scale(1.02 1)"><tspan x="0" y="0">Under Const</tspan><tspan class="cls-6" x="706.17" y="0">r</tspan><tspan x="755.87" y="0">uction</tspan><tspan class="cls-2" x="-256.73" y="250.05">T</tspan><tspan x="-178.69" y="250.05">hank </tspan><tspan class="cls-1" x="134.02" y="250.05">y</tspan><tspan x="195.89" y="250.05">ou </tspan><tspan class="cls-1" x="369.62" y="250.05">f</tspan><tspan class="cls-3" x="408.38" y="250.05">or </tspan><tspan class="cls-1" x="558.87" y="250.05">y</tspan><tspan x="620.73" y="250.05">our p</tspan><tspan class="cls-1" x="910.19" y="250.05">a</tspan><tspan x="977.91" y="250.05">tience!</tspan></text>
</svg>